FFmpeg version SVN-r25716, Copyright (c) 2000-2010 the FFmpeg developers  built on Nov 10 2010 12:23:18 with gcc 4.1.2 20080704 (Red Hat 4.1.2-48)  configuration: --enable-libmp3lame --enable-shared --disable-mmx --arch=x86_64  libavutil     50.33. 0 / 50.33. 0  libavcore      0.12. 1 /  0.12. 1  libavcodec    52.94. 4 / 52.94. 4  libavformat   52.84. 0 / 52.84. 0  libavdevice   52. 2. 2 / 52. 2. 2  libavfilter    1.59. 0 /  1.59. 0  libswscale     0.12. 0 /  0.12. 0Input #0, avi, from '/RAID10/data/converted_video_files/40668.avi':  Duration: 00:00:02.00, start: 0.000000, bitrate: 1203 kb/s    Stream #0.0: Video: mjpeg, yuvj420p, 411x456 [PAR 1:1 DAR 137:152], 10 tbr, 10 tbn, 10 tbc    Metadata:      title           : ImageJ AVI     [buffer @ 0xf0c0050] w:411 h:456 pixfmt:yuvj420p[ffsink @ 0xf0b4c80] auto-inserting filter 'auto-inserted scaler 0' between the filter 'src' and the filter 'out'[scale @ 0xf0b4fa0] w:411 h:456 fmt:yuvj420p -> w:411 h:456 fmt:yuv420p flags:0x4Output #0, flv, to '/RAID10/data/converted_video_files/40668.flv':  Metadata:    encoder         : Lavf52.84.0    Stream #0.0: Video: flv, yuv420p, 411x456 [PAR 1:1 DAR 137:152], q=2-31, 600 kb/s, 1k tbn, 24 tbc    Metadata:      title           : ImageJ AVI     Stream mapping:  Stream #0.0 -> #0.0Press [q] to stop encodingframe=   20 fps=  0 q=7.7 Lsize=     165kB time=1.96 bitrate= 690.2kbits/s    video:164kB audio:0kB global headers:0kB muxing overhead 0.314742%